<?xml version="1.0" encoding="UTF-8" standalone="no"?><!DOCTYPE svg PUBLIC "-//W3C//DTD SVG 1.1//EN" "http://www.w3.org/Graphics/SVG/1.1/DTD/svg11.dtd"><svg width="100%" height="100%" viewBox="0 0 31996 25838" version="1.1" xmlns="http://www.w3.org/2000/svg" xmlns:xlink="http://www.w3.org/1999/xlink" xml:space="preserve" xmlns:serif="http://www.serif.com/" style="fill-rule:evenodd;clip-rule:evenodd;stroke-linejoin:round;stroke-miterlimit:2;"><g id="Calque1"><path d="M15997.1,24345.1c-2901.47,-0 -7491,-6339.18 -8704.41,-8430.46c-4722.53,-8139.15 -3129.65,-14956.3 1124.93,-14390.2c3988.25,530.647 6438.03,5587.54 7579.45,9570.89c1141.46,-3983.35 3591.22,-9040.24 7579.45,-9570.89c4254.61,-566.078 5847.45,6251.09 1124.93,14390.2c-1213.4,2091.27 -5802.93,8430.46 -8704.41,8430.46l0.037,-0Zm-0.814,-6581.25c-356.198,-8.54 -407.302,-853.598 -768.339,-2585.64c-513.679,-2464.37 -2201.25,-9723.14 -6235.17,-10095c-3246.25,-299.24 -3449.79,4500.88 -1563.92,8243.78c2247.8,4461.22 5712.15,8585.33 8568.23,8585.33c2856.09,0 6320.42,-4124.1 8568.23,-8585.33c1885.87,-3742.9 1682.33,-8543.02 -1563.9,-8243.78c-4033.92,371.862 -5744.22,7624.75 -6235.17,10095c-343.774,1729.68 -365.596,2595.32 -769.968,2585.64l0.026,-0Z"/><path id="alpha" d="M8560.15,15722.1c-311.782,-0 -615.707,-13.191 -909.08,-38.393c-2124.84,-182.496 -3696.28,-994.634 -3696.28,-1983.29c-0,-501.701 440.734,-957.944 1157,-1309.52c890.099,-436.897 2205.7,-712.163 3629.75,-712.163c-2.197,0 2.211,0 -0,0c885.847,1.596 1742.78,82.388 2537.08,242.541c1633.72,329.4 3002.5,994.513 3812.93,1996.84c659.658,815.868 1828.39,1661.82 3442.17,2260.37c1338.44,496.434 2983.01,822.686 4897.19,820.475c-2.211,0 2.197,0 0,0c184.556,0 365.964,-2.919 544.133,-8.646c3835.01,-123.269 6172.11,-1550.21 6172.11,-3289.9c0,-1445.35 -1613.21,-2674.83 -4358.36,-3120.17c-712.517,-115.591 -1501.3,-178.353 -2357.9,-178.353c2.196,-0 -2.212,-0 -0,-0c-1123.08,-1.305 -2153.34,110.46 -3083.43,303.338c-2566.52,532.218 -4370.19,1681.98 -5255.95,2777.51c-474.122,586.392 -1167.47,1057.38 -1999.16,1413.24c-1281.06,548.154 -2890.33,823.162 -4532.24,826.125c2.212,-0 -2.196,-0 0,-0l0.026,-0Zm-2.196,1276.86c-311.418,0 -613.836,-8.307 -906.888,-24.432c-3616.67,-199.055 -5804.07,-1590.04 -5804.07,-3274.11c0,-970.398 777.844,-1843.5 2133.55,-2447.29c1187.63,-528.96 2818.71,-851.235 4758.8,-851.235c954.922,0.906 1795.61,57.189 2539.28,157.85c3239.43,438.449 4638.13,1718.9 5619.61,2932.76c403.329,498.83 964.921,914.133 1635.5,1245.73c1331.99,658.693 3093.93,987.123 4899.4,983.869c183.513,-0 364.335,-4.578 541.937,-13.482c2307.42,-115.82 4068.74,-963.447 4068.74,-2008.21c-0,-746.609 -899.484,-1392.54 -2254.97,-1742.67c-687.271,-177.539 -1491.78,-279.014 -2355.71,-279.014l0,0.015c-1070.71,-1.935 -2126.11,112.794 -3085.62,343.865c-1472.96,354.739 -2719.92,983.685 -3449.27,1885.73c-758.587,938.23 -1838.14,1916.23 -3805.82,2514.48c-1162.5,353.433 -2634.98,574.322 -4534.42,576.135l-0.051,0Z"/><path d="M5524.68,12211.5c380.247,-146.41 814.608,-267.408 1286.04,-356.891c170.673,499.49 377.372,994.557 618.133,1472.39c411.544,816.775 863.858,1622.26 1345.75,2393.21c-71.394,1.168 -142.879,1.813 -214.439,1.935c-311.786,-0 -615.711,-13.191 -909.084,-38.393c-178.921,-15.373 -353.909,-35.197 -524.367,-59.213c-661.623,-1172.99 -1191.95,-2316.8 -1602.04,-3413.04Z" style="fill:#aa2424;"/><path d="M26482.1,12177.6c-214.147,-82.325 -446.141,-156.007 -693.307,-219.845c-190.236,-49.14 -389.46,-92.461 -596.451,-129.409c-172.364,508.38 -382.088,1012.41 -627.059,1498.62c-411.662,817.051 -864.145,1622.8 -1346.22,2393.97c71.254,0.907 142.614,1.305 214.023,1.168c183.512,0 364.339,-4.577 541.936,-13.481c308.208,-15.48 606.678,-43.999 892.514,-84.308c668.397,-1185.01 1202.77,-2340.23 1614.57,-3446.72Z" style="fill:#aa2424;"/><path d="M14889.5,13687.2c-173.13,-697.759 -394.818,-1500.4 -672.959,-2329.17c765.221,349.486 1350.14,768.169 1827.62,1209.53c457.197,-354.122 1009.59,-693.75 1651.59,-994.756c-244.278,749.849 -441.641,1472.5 -597.711,2108.59c-6.048,6.324 -12.085,12.682 -18.074,19.058c3.549,3.744 7.095,7.507 10.644,11.256c-140.79,576.15 -247.488,1079.88 -324.332,1466.46c-9.078,45.672 -17.923,90.743 -26.57,135.202c-318.619,1639.59 -349.7,2459.87 -743.398,2450.44c-339.734,-8.142 -401.929,-777.277 -720.209,-2351.19c-15.42,-76.263 -31.453,-154.412 -48.13,-234.452c-80.7,-387.153 -190.375,-892.65 -333.561,-1471.16c-1.629,-6.604 -3.269,-13.19 -4.913,-19.81Z" style="fill:#aa2424;"/></g></svg>