<?xml version="1.0" encoding="UTF-8" standalone="no"?><!DOCTYPE svg PUBLIC "-//W3C//DTD SVG 1.1//EN" "http://www.w3.org/Graphics/SVG/1.1/DTD/svg11.dtd"><svg width="100%" height="100%" viewBox="0 0 1772 781" version="1.1" xmlns="http://www.w3.org/2000/svg" xmlns:xlink="http://www.w3.org/1999/xlink" xml:space="preserve" xmlns:serif="http://www.serif.com/" style="fill-rule:evenodd;clip-rule:evenodd;stroke-linejoin:round;stroke-miterlimit:2;"><g id="Final"><g id="fonds"><g id="fond"><path d="M1122.05,768.406c0,-417.196 105.847,-755.906 236.221,-755.906c130.373,0 236.22,338.71 236.22,755.906" style="fill:#45677b;"/><path d="M177.165,768.406c0,-417.196 105.847,-755.906 236.221,-755.906c130.373,0 236.22,338.71 236.22,755.906" style="fill:#45677b;"/><path d="M649.606,768.406c0,-208.598 52.924,-377.953 118.111,-377.953c65.186,-0 118.11,169.355 118.11,377.953" style="fill:#45677b;"/><path d="M885.827,768.406c-0,-208.598 52.923,-377.953 118.11,-377.953c65.187,-0 118.11,169.355 118.11,377.953" style="fill:#45677b;"/></g></g><g id="avec-ligne-noire" serif:id="avec ligne noire"><g id="petits"><path id="fermée" d="M885.827,768.406c-0,-208.598 52.923,-377.953 118.11,-377.953c65.187,-0 118.11,169.355 118.11,377.953l-236.22,-0Z" style="fill:none;stroke:#000;stroke-width:25px;stroke-linecap:round;stroke-miterlimit:1.5;"/><path id="fermée1" serif:id="fermée" d="M649.606,768.406c0,-208.598 52.924,-377.953 118.111,-377.953c65.186,-0 118.11,169.355 118.11,377.953l-236.221,-0Z" style="fill:none;stroke:#000;stroke-width:25px;stroke-linecap:round;stroke-miterlimit:1.5;"/></g><g id="souriant"><path id="fermée2" serif:id="fermée" d="M1122.05,768.406c0,-417.196 105.847,-755.906 236.221,-755.906c130.373,0 236.22,338.71 236.22,755.906l-472.441,-0Z" style="fill:none;stroke:#000;stroke-width:25px;stroke-linecap:round;stroke-miterlimit:1.5;"/><path d="M1273.63,579.429c-0,0 36.965,52.907 84.636,52.307c50.515,-0.635 84.636,-52.307 84.636,-52.307" style="fill:none;stroke:#000;stroke-width:25px;stroke-linecap:round;stroke-miterlimit:1.5;"/><g><path id="G-interne" serif:id="G interne" d="M1273.63,384.547c3.259,0 5.905,2.646 5.905,5.906c0,3.259 -2.646,5.905 -5.905,5.905c-3.26,0 -5.906,-2.646 -5.906,-5.905c0,-3.26 2.646,-5.906 5.906,-5.906" style="fill:none;stroke:#000;stroke-width:25px;stroke-linecap:round;stroke-miterlimit:1.5;"/><path id="G-externe" serif:id="G externe" d="M1273.63,372.765c9.762,0 17.687,7.926 17.687,17.688c0,9.762 -7.925,17.687 -17.687,17.687c-9.762,0 -17.688,-7.925 -17.688,-17.687c0,-9.762 7.926,-17.688 17.688,-17.688" style="fill:none;stroke:#000;stroke-width:25px;stroke-linecap:round;stroke-miterlimit:1.5;"/><path id="D-interne" serif:id="D interne" d="M1442.9,384.547c3.259,0 5.905,2.646 5.905,5.906c0,3.259 -2.646,5.905 -5.905,5.905c-3.26,0 -5.906,-2.646 -5.906,-5.905c0,-3.26 2.646,-5.906 5.906,-5.906" style="fill:none;stroke:#000;stroke-width:25px;stroke-linecap:round;stroke-miterlimit:1.5;"/><path id="D-externe" serif:id="D externe" d="M1442.9,372.765c9.762,0 17.687,7.926 17.687,17.688c0,9.762 -7.925,17.687 -17.687,17.687c-9.762,0 -17.688,-7.925 -17.688,-17.687c0,-9.762 7.926,-17.688 17.688,-17.688" style="fill:none;stroke:#000;stroke-width:25px;stroke-linecap:round;stroke-miterlimit:1.5;"/></g></g><g id="neutre"><path id="fermée3" serif:id="fermée" d="M177.165,768.406c0,-417.196 105.847,-755.906 236.221,-755.906c130.373,0 236.22,338.71 236.22,755.906l-472.441,-0Z" style="fill:none;stroke:#000;stroke-width:25px;stroke-linecap:round;stroke-miterlimit:1.5;"/><path d="M328.75,579.429l169.272,0" style="fill:none;stroke:#000;stroke-width:25px;stroke-linecap:round;stroke-miterlimit:1.5;"/><g><path id="G-interne1" serif:id="G interne" d="M328.75,384.547c3.259,0 5.905,2.646 5.905,5.906c0,3.259 -2.646,5.905 -5.905,5.905c-3.259,0 -5.906,-2.646 -5.906,-5.905c0,-3.26 2.647,-5.906 5.906,-5.906" style="fill:none;stroke:#000;stroke-width:25px;stroke-linecap:round;stroke-miterlimit:1.5;"/><path id="G-externe1" serif:id="G externe" d="M328.75,372.765c9.762,0 17.687,7.926 17.687,17.688c0,9.762 -7.925,17.687 -17.687,17.687c-9.762,0 -17.688,-7.925 -17.688,-17.687c0,-9.762 7.926,-17.688 17.688,-17.688" style="fill:none;stroke:#000;stroke-width:25px;stroke-linecap:round;stroke-miterlimit:1.5;"/><path id="D-interne1" serif:id="D interne" d="M498.022,384.547c3.259,0 5.905,2.646 5.905,5.906c0,3.259 -2.646,5.905 -5.905,5.905c-3.26,0 -5.906,-2.646 -5.906,-5.905c0,-3.26 2.646,-5.906 5.906,-5.906" style="fill:none;stroke:#000;stroke-width:25px;stroke-linecap:round;stroke-miterlimit:1.5;"/><path id="D-externe1" serif:id="D externe" d="M498.022,372.765c9.762,0 17.687,7.926 17.687,17.688c0,9.762 -7.925,17.687 -17.687,17.687c-9.762,0 -17.688,-7.925 -17.688,-17.687c0,-9.762 7.926,-17.688 17.688,-17.688" style="fill:none;stroke:#000;stroke-width:25px;stroke-linecap:round;stroke-miterlimit:1.5;"/></g></g><rect id="grand-trait-bas" serif:id="grand trait bas" x="0" y="756.004" width="1771.65" height="24.803"/><rect x="0" y="756.004" width="1771.65" height="24.803"/></g></g></svg>