<?xml version="1.0" encoding="UTF-8" standalone="no"?><!DOCTYPE svg PUBLIC "-//W3C//DTD SVG 1.1//EN" "http://www.w3.org/Graphics/SVG/1.1/DTD/svg11.dtd"><svg width="100%" height="100%" viewBox="0 0 1772 781" version="1.1" xmlns="http://www.w3.org/2000/svg" xmlns:xlink="http://www.w3.org/1999/xlink" xml:space="preserve" style="fill-rule:evenodd;clip-rule:evenodd;stroke-linejoin:round;stroke-miterlimit:2;"><g><g><g><path d="M1122.05,768.406C1122.05,351.21 1227.89,12.5 1358.27,12.5C1488.64,12.5 1594.49,351.21 1594.49,768.406" style="fill:white;"/><path d="M177.165,768.406C177.165,351.21 283.012,12.5 413.386,12.5C543.759,12.5 649.606,351.21 649.606,768.406" style="fill:white;"/><path d="M649.606,768.406C649.606,559.808 702.53,390.453 767.717,390.453C832.903,390.453 885.827,559.808 885.827,768.406" style="fill:white;"/><path d="M885.827,768.406C885.827,559.808 938.75,390.453 1003.94,390.453C1069.12,390.453 1122.05,559.808 1122.05,768.406" style="fill:white;"/></g></g><g><g><path d="M885.827,768.406C885.827,559.808 938.75,390.453 1003.94,390.453C1069.12,390.453 1122.05,559.808 1122.05,768.406L885.827,768.406Z" style="fill:none;stroke:black;stroke-width:25px;stroke-linecap:round;stroke-miterlimit:1.5;"/><path d="M649.606,768.406C649.606,559.808 702.53,390.453 767.717,390.453C832.903,390.453 885.827,559.808 885.827,768.406L649.606,768.406Z" style="fill:none;stroke:black;stroke-width:25px;stroke-linecap:round;stroke-miterlimit:1.5;"/></g><g><path d="M1122.05,768.406C1122.05,351.21 1227.89,12.5 1358.27,12.5C1488.64,12.5 1594.49,351.21 1594.49,768.406L1122.05,768.406Z" style="fill:none;stroke:black;stroke-width:25px;stroke-linecap:round;stroke-miterlimit:1.5;"/><path d="M1273.63,579.429C1273.63,579.429 1310.6,632.336 1358.27,631.736C1408.78,631.101 1442.9,579.429 1442.9,579.429" style="fill:none;stroke:black;stroke-width:25px;stroke-linecap:round;stroke-miterlimit:1.5;"/><g><path d="M1273.63,384.547C1276.89,384.547 1279.54,387.193 1279.54,390.453C1279.54,393.712 1276.89,396.358 1273.63,396.358C1270.37,396.358 1267.73,393.712 1267.73,390.453C1267.73,387.193 1270.37,384.547 1273.63,384.547" style="fill:none;stroke:black;stroke-width:25px;stroke-linecap:round;stroke-miterlimit:1.5;"/><path d="M1273.63,372.765C1283.39,372.765 1291.32,380.691 1291.32,390.453C1291.32,400.215 1283.39,408.14 1273.63,408.14C1263.87,408.14 1255.94,400.215 1255.94,390.453C1255.94,380.691 1263.87,372.765 1273.63,372.765" style="fill:none;stroke:black;stroke-width:25px;stroke-linecap:round;stroke-miterlimit:1.5;"/><path d="M1442.9,384.547C1446.16,384.547 1448.81,387.193 1448.81,390.453C1448.81,393.712 1446.16,396.358 1442.9,396.358C1439.64,396.358 1437,393.712 1437,390.453C1437,387.193 1439.64,384.547 1442.9,384.547" style="fill:none;stroke:black;stroke-width:25px;stroke-linecap:round;stroke-miterlimit:1.5;"/><path d="M1442.9,372.765C1452.67,372.765 1460.59,380.691 1460.59,390.453C1460.59,400.215 1452.67,408.14 1442.9,408.14C1433.14,408.14 1425.22,400.215 1425.22,390.453C1425.22,380.691 1433.14,372.765 1442.9,372.765" style="fill:none;stroke:black;stroke-width:25px;stroke-linecap:round;stroke-miterlimit:1.5;"/></g></g><g><path d="M177.165,768.406C177.165,351.21 283.012,12.5 413.386,12.5C543.759,12.5 649.606,351.21 649.606,768.406L177.165,768.406Z" style="fill:none;stroke:black;stroke-width:25px;stroke-linecap:round;stroke-miterlimit:1.5;"/><path d="M328.75,579.429L498.022,579.429" style="fill:none;stroke:black;stroke-width:25px;stroke-linecap:round;stroke-miterlimit:1.5;"/><g><path d="M328.75,384.547C332.009,384.547 334.655,387.193 334.655,390.453C334.655,393.712 332.009,396.358 328.75,396.358C325.491,396.358 322.844,393.712 322.844,390.453C322.844,387.193 325.491,384.547 328.75,384.547" style="fill:none;stroke:black;stroke-width:25px;stroke-linecap:round;stroke-miterlimit:1.5;"/><path d="M328.75,372.765C338.512,372.765 346.437,380.691 346.437,390.453C346.437,400.215 338.512,408.14 328.75,408.14C318.988,408.14 311.062,400.215 311.062,390.453C311.062,380.691 318.988,372.765 328.75,372.765" style="fill:none;stroke:black;stroke-width:25px;stroke-linecap:round;stroke-miterlimit:1.5;"/><path d="M498.022,384.547C501.281,384.547 503.927,387.193 503.927,390.453C503.927,393.712 501.281,396.358 498.022,396.358C494.762,396.358 492.116,393.712 492.116,390.453C492.116,387.193 494.762,384.547 498.022,384.547" style="fill:none;stroke:black;stroke-width:25px;stroke-linecap:round;stroke-miterlimit:1.5;"/><path d="M498.022,372.765C507.784,372.765 515.709,380.691 515.709,390.453C515.709,400.215 507.784,408.14 498.022,408.14C488.26,408.14 480.334,400.215 480.334,390.453C480.334,380.691 488.26,372.765 498.022,372.765" style="fill:none;stroke:black;stroke-width:25px;stroke-linecap:round;stroke-miterlimit:1.5;"/></g></g><rect x="0" y="756.004" width="1771.65" height="24.803"/></g></g></svg>